HIERARCHY
ROOT Hips
{
  OFFSET 1.44925e-005 102.336 -0.101585
  CHANNELS 6 Xposition Yposition Zposition Zrotation Xrotation Yrotation
  JOINT RightUpLeg
  {
    OFFSET -8.9458 -8.66707 0.101652
    CHANNELS 3 Zrotation Xrotation Yrotation
    JOINT RightLeg
    {
      OFFSET 0 -44.4227 1.3727
      CHANNELS 3 Zrotation Xrotation Yrotation
      JOINT RightFoot
      {
        OFFSET 0.253549 -42.0924 -1.46059
        CHANNELS 3 Zrotation Xrotation Yrotation
        JOINT RightToes
        {
          OFFSET 0.04 -4.41509 8.4991
          CHANNELS 3 Zrotation Xrotation Yrotation
          End Site
          {
            OFFSET -0.08 -0.137448 9.77979
          }
        }
      }
    }
  }
  JOINT Spine
  {
    OFFSET 0 11.8905 0
    CHANNELS 3 Zrotation Xrotation Yrotation
    JOINT Spine1
    {
      OFFSET 0 25.6574 0.127663
      CHANNELS 3 Zrotation Xrotation Yrotation
      JOINT HEad
      {
        OFFSET 0 8.73416 0.011341
        CHANNELS 3 Zrotation Xrotation Yrotation
        End Site
        {
          OFFSET -0.29 12.7742 2.51395
        }
      }
      JOINT LeftShoulder1
      {
        OFFSET 8.99 -0.362252 -0.22
        CHANNELS 3 Zrotation Xrotation Yrotation
        JOINT LeftArm
        {
          OFFSET 10.2827 -0.00337999 0.322123
          CHANNELS 3 Zrotation Xrotation Yrotation
          JOINT LeftForeArm
          {
            OFFSET 26.2597 0.099144 -1.42434
            CHANNELS 3 Zrotation Xrotation Yrotation
            JOINT LeftHand
            {
              OFFSET 22.0902 0.085362 1.02216
              CHANNELS 3 Zrotation Xrotation Yrotation
              End Site
              {
                OFFSET 13.419 -0.6 1.50291
              }
            }
          }
        }
      }
      JOINT RightShoulder
      {
        OFFSET -8.99 -0.362252 -0.22
        CHANNELS 3 Zrotation Xrotation Yrotation
        JOINT RightArm
        {
          OFFSET -10.2827 -0.00338 0.322123
          CHANNELS 3 Zrotation Xrotation Yrotation
          JOINT RightForeArm
          {
            OFFSET -26.364 0.099144 -1.42434
            CHANNELS 3 Zrotation Xrotation Yrotation
            JOINT RightHand
            {
              OFFSET -22.0324 0.085362 1.02216
              CHANNELS 3 Zrotation Xrotation Yrotation
              End Site
              {
                OFFSET -13.3284 -0.6 1.50291
              }
            }
          }
        }
      }
    }
  }
  JOINT LeftUpLeg
  {
    OFFSET 8.9458 -8.66707 0.101652
    CHANNELS 3 Zrotation Xrotation Yrotation
    JOINT LeftLeg
    {
      OFFSET 0 -44.4227 1.3727
      CHANNELS 3 Zrotation Xrotation Yrotation
      JOINT LeftFoot
      {
        OFFSET -0.253549 -42.0924 -1.46059
        CHANNELS 3 Zrotation Xrotation Yrotation
        JOINT LeftToes
        {
          OFFSET -0.04 -4.41509 8.4991
          CHANNELS 3 Zrotation Xrotation Yrotation
          End Site
          {
            OFFSET 0.08 -0.047448 9.77979
          }
        }
      }
    }
  }
}
MOTION
Frames:	7
Frame Time:	0.0333333
-3.15532 105.98 36.1887 0.774852 6.78805 -179.792 -8.85989 9.09927 -7.72473 0.577855 9.83632 -7.96887 11.6359 -9.15238 -0.0268074 0.0462048 0.000530889 0.662642 -0.104553 -2.82804 -0.083884 0.739234 7.32042 -0.425323 -1.10667 -1.24299 -0.274217 -27.5505 1.50097 -0.953135 -48.1941 -22.0731 -15.4837 -9.27695 32.6901 -1.36353 2.71017 9.79011 -0.709183 37.6076 5.16411 7.7735 27.3523 -33.952 -4.08047 4.51791 33.9154 8.13463 -19.4194 8.85472 1.03934 11.4729 6.14708 8.23959 -3.03335 12.7405 4.64763 -11.5446 -7.99787 -0.00197876 -1.31755e-009 8.75239e-006 -1.46575e-008 
-3.14991 105.99 36.181 0.759559 6.78517 -179.776 -8.85777 9.11467 -7.72506 0.57575 9.80929 -7.97821 11.5818 -9.13961 -0.0268064 0.0462048 0.000530889 0.662642 -0.155216 -2.87359 -0.0830045 0.766553 7.37677 -0.430083 -1.175 -1.19242 -0.303704 -27.5822 1.49284 -0.92496 -48.2007 -22.0334 -15.4943 -9.32614 32.5941 -1.26223 2.94461 9.76914 -1.22207 37.6118 5.16411 7.7735 27.3542 -33.9285 -4.08061 4.54036 33.9961 8.07686 -19.3724 8.84777 1.09947 11.4532 6.11135 8.24816 -3.0433 12.7812 4.57276 -11.2889 -8.05252 -0.00630184 -1.31755e-009 8.75239e-006 -1.46575e-008 
-3.14372 106.001 36.1686 0.744601 6.77065 -179.746 -8.85319 9.13097 -7.72475 0.574533 9.76877 -8.00352 11.5036 -9.12821 -0.0268055 0.0462048 0.000530889 0.662642 -0.201795 -2.97985 -0.0842708 0.777298 7.49613 -0.441915 -1.27226 -1.07522 -0.28783 -27.6142 1.48502 -0.897684 -48.2257 -22.0036 -15.498 -9.37334 32.4931 -1.12772 3.28148 9.73582 -1.948 37.6217 5.16411 7.77351 27.3856 -33.9204 -4.0397 4.56945 34.1853 7.9557 -19.1557 8.86 1.10068 11.4376 6.03967 8.27204 -3.05841 12.8636 4.45835 -10.9493 -8.14188 -0.0132377 -1.31755e-009 8.75239e-006 -1.46575e-008 
-3.13978 106.004 36.1597 0.747073 6.7522 -179.706 -8.83874 9.13625 -7.72016 0.580475 9.74941 -8.06206 11.4642 -9.14685 -0.0268069 0.0462048 0.000530889 0.662642 -0.229877 -3.13054 -0.103511 0.798916 7.67712 -0.474134 -1.36162 -0.929427 -0.234783 -27.6504 1.48143 -0.882791 -48.2526 -21.999 -15.5115 -9.39008 32.386 -1.0597 3.49547 9.71247 -2.40547 37.6037 5.16408 7.77605 27.481 -33.9746 -3.92071 4.57096 34.3545 7.84811 -18.854 8.89331 0.998183 11.4483 5.96972 8.29483 -3.05866 12.9465 4.37865 -10.8188 -8.20772 -0.0185477 -1.31755e-009 8.75239e-006 -1.46575e-008 
-3.13588 106.004 36.1545 0.757837 6.73889 -179.659 -8.81371 9.13404 -7.70821 0.586775 9.75638 -8.14182 11.4663 -9.18215 -0.0268096 0.0462048 0.000530889 0.662642 -0.272253 -3.29896 -0.133351 0.869429 7.89359 -0.525319 -1.42572 -0.793083 -0.216848 -27.6846 1.47911 -0.87209 -48.2939 -21.9809 -15.5556 -9.39928 32.1934 -1.0588 3.566 9.70558 -2.5008 37.5552 5.16328 7.78487 27.6124 -34.0537 -3.76931 4.52964 34.4563 7.84151 -18.6839 8.92236 0.872225 11.4703 5.92716 8.30255 -3.04411 12.9916 4.34207 -10.87 -8.22832 -0.0209132 -1.31755e-009 8.75239e-006 -1.46575e-008 
-3.1334 106.003 36.1452 0.761231 6.72875 -179.608 -8.79584 9.13732 -7.69519 0.585236 9.76115 -8.20464 11.4781 -9.19147 -0.0268103 0.0462048 0.000530889 0.662642 -0.335584 -3.46781 -0.160464 0.96914 8.0998 -0.577028 -1.45344 -0.683262 -0.224157 -27.6795 1.47693 -0.865197 -48.3988 -21.955 -15.6259 -9.39546 32.0535 -1.07896 3.62274 9.70552 -2.33511 37.5197 5.15876 7.78377 27.711 -34.0755 -3.66527 4.46841 34.5379 7.9505 -18.7002 8.93744 0.768531 11.4828 5.90711 8.30223 -3.03412 12.9976 4.30084 -10.8992 -8.22405 -0.0226132 -1.31755e-009 8.75239e-006 -1.46575e-008 
-3.1327 106 36.1278 0.759894 6.72003 -179.561 -8.78826 9.15823 -7.69095 0.588026 9.74068 -8.23871 11.4859 -9.16664 -0.0268084 0.0462048 0.000530889 0.662642 -0.401854 -3.63258 -0.179387 1.07831 8.27977 -0.621111 -1.45632 -0.608735 -0.185389 -27.645 1.47338 -0.859268 -48.5676 -21.9662 -15.7209 -9.3503 32.1907 -1.10276 3.69224 9.70879 -1.99475 37.511 5.14765 7.76083 27.755 -34.032 -3.61636 4.42831 34.56 8.09677 -18.7326 8.94767 0.690841 11.4915 5.8944 8.30927 -3.03618 12.997 4.229 -10.8564 -8.22127 -0.0239745 -1.31755e-009 8.75239e-006 -1.46575e-008 
